<svg xmlns="http://www.w3.org/2000/svg" viewBox="0 0 48 48"><path fill="#74cccf" d="M42.547,39.769c0.405,0.127-9.356,0.765-18.547,0.686c-6.683-0.057-13.609-0.931-17.499-0.744 c-2.475-0.17-3.059-1.292-2.953-3.207c0.099-1.087-0.728-6.195-0.75-11.638c-0.024-6.016,1.046-3.077,0.708-9.067 c-0.138-2.451-0.457-6.015,2.992-6.015c0.604,0.032,9.137-0.95,17.587-0.929c8.589,0.021,18.091,0.535,18.41,0.419 c2.073,0.058,3.001,0.761,3.04,4.367c-0.019,0.832-0.935,6.254-0.933,11.545c0.002,5.647,1.82,8.444,1.301,11.336 C45.588,38.278,44.331,39.655,42.547,39.769z"/><path fill="#4b7bb2" d="M22.816,21.01c-0.211,4.619-3.725,7.546-7.963,7.005c-4.012-0.017-7.68-2.46-7.68-7.552 c0.119-3.737,3.773-7.068,7.699-6.958C19.227,13.951,22.757,17.293,22.816,21.01z"/><path fill="#010101" d="M27.054,40.68c-0.896,0-1.817-0.004-2.755-0.012c-2.981-0.025-6.136-0.159-8.919-0.277 c-3.605-0.152-6.72-0.284-8.855-0.182c-2.555-0.172-3.609-1.323-3.476-3.734c0.036-0.396-0.07-1.503-0.203-2.905 c-0.226-2.376-0.535-5.63-0.548-8.973c-0.012-2.978,0.245-3.779,0.471-4.487c0.219-0.683,0.408-1.273,0.238-4.285l-0.014-0.233 c-0.105-1.811-0.236-4.064,0.986-5.359c0.595-0.631,1.443-0.951,2.519-0.951c0.147-0.004,0.909-0.059,1.778-0.134 c3.055-0.264,9.379-0.8,15.76-0.795c4.28,0.011,7.603,0.194,10.273,0.341c2.781,0.153,4.979,0.274,7.184,0.165 c1.427-0.066,2.53,0.269,3.298,1.006c0.839,0.806,1.258,2.077,1.245,3.778c-0.01,1.221-0.128,2.5-0.266,3.981 c-0.195,2.101-0.416,4.482-0.415,7.56c0.001,3.362,0.292,5.295,0.574,7.165c0.186,1.231,0.377,2.505,0.474,4.142 c-0.261,2.109-1.797,3.613-3.751,3.77c-0.574,0.143-2.028,0.188-5.843,0.29C34.837,40.604,31.23,40.68,27.054,40.68z M8.306,39.174 c1.948,0,4.393,0.104,7.116,0.219c2.911,0.123,5.921,0.25,8.886,0.276c8.703,0.076,16.98-0.227,18.027-0.353 c0.055-0.026,0.116-0.042,0.181-0.046c1.503-0.095,2.692-1.251,2.892-2.812c-0.097-1.499-0.277-2.694-0.468-3.959 c-0.287-1.906-0.584-3.877-0.585-7.313c-0.001-3.125,0.222-5.53,0.419-7.652c0.135-1.458,0.252-2.718,0.262-3.897 c0.011-1.416-0.304-2.441-0.937-3.049c-0.57-0.547-1.405-0.785-2.556-0.729c-2.256,0.111-4.477-0.011-7.288-0.166 c-2.797-0.154-5.967-0.329-10.221-0.339c-6.276,0.006-12.631,0.53-15.671,0.792c-1.213,0.105-1.709,0.145-1.891,0.137 c-0.774,0-1.36,0.209-1.764,0.638c-0.926,0.981-0.809,2.996-0.715,4.614l0.013,0.235c0.181,3.196-0.035,3.868-0.284,4.646 c-0.204,0.636-0.435,1.358-0.423,4.178c0.013,3.297,0.32,6.525,0.544,8.883c0.148,1.566,0.247,2.602,0.204,3.072 c-0.088,1.604,0.281,2.512,2.489,2.663C7.065,39.186,7.658,39.174,8.306,39.174z"/><path fill="#010101" d="M15.849,28.58c-0.349,0-0.703-0.022-1.06-0.068c-4.009-0.014-8.117-2.51-8.116-8.048 c0.127-4.027,4.021-7.569,8.213-7.458c4.68,0.478,8.366,3.99,8.429,7.997c0,0.01,0,0.021,0,0.031 c-0.109,2.395-1.075,4.475-2.721,5.858C19.281,27.996,17.625,28.58,15.849,28.58z M14.652,14c-3.55,0-6.87,3.044-6.979,6.479 c0,5.167,3.869,7.022,7.182,7.036c1.954,0.244,3.741-0.25,5.096-1.39c1.426-1.198,2.265-3.017,2.365-5.123 c-0.064-3.445-3.422-6.583-7.494-7C14.765,14.001,14.708,14,14.652,14z"/><path fill="#ffaa42" d="M24.382,20.963c-6.608-0.15-9.56,0.101-9.358,0.225c-0.19-0.25-0.155-4.896-0.052-9.628 C20.324,11.554,24.437,15.669,24.382,20.963z"/><path fill="#ffaa42" d="M10.573,32.769c-1.834-0.063-2.239,0.405-2.334,1.451c-0.056,0.749,0.26,1.457,1.888,1.533 c0.636-0.061,7.263-0.132,13.873-0.177c0-0.904,0-2.214,0-3.125C17.621,32.479,11.297,32.576,10.573,32.769z"/><path fill="#4b7bb2" d="M38.867,32.579c0.149-0.105-7.892-0.158-14.867-0.128c0,0.911,0,2.222,0,3.125 c7.09-0.048,15.161-0.066,14.799-0.009c1.568-0.093,1.823-0.667,1.97-1.595C40.708,33.376,40.279,32.674,38.867,32.579z"/><path fill="#ffaa42" d="M38.704,17.401c0.141,0.184-4.703,0.099-4.783,0.174c-0.694,0.01-1.421-0.747-1.432-1.61 c-0.06-0.645,0.683-1.465,1.279-1.523c0.13,0.028,5.232,0.059,5.425-0.032c0.721,0.206,1.468,0.482,1.561,1.685 C40.69,16.976,39.828,17.5,38.704,17.401z"/><path fill="#010101" d="M15.024,21.688c-0.09,0-0.181-0.024-0.262-0.074c-0.053-0.032-0.099-0.075-0.136-0.124l0,0 c-0.021-0.026-0.042-0.054-0.062-0.104c-0.019-0.042-0.033-0.087-0.041-0.133c-0.121-0.522-0.212-2.307-0.051-9.704 c0.006-0.276,0.267-0.468,0.511-0.489c2.735,0,5.258,1.027,7.107,2.893c1.828,1.845,2.819,4.336,2.792,7.016 c-0.001,0.133-0.056,0.261-0.152,0.354c-0.096,0.093-0.239,0.136-0.359,0.141c-5.709-0.131-8.488,0.043-9.071,0.142 C15.217,21.66,15.121,21.688,15.024,21.688z M15.461,12.072c-0.104,4.988-0.083,7.593-0.022,8.541 c1.041-0.163,3.331-0.265,8.435-0.161c-0.096-2.216-0.971-4.258-2.494-5.795C19.829,13.091,17.742,12.183,15.461,12.072z"/><path fill="#010101" d="M10.174,36.25c-1.001-0.042-1.644-0.278-2.037-0.722c-0.305-0.344-0.438-0.797-0.397-1.346 c0.132-1.448,0.89-1.968,2.789-1.915c1.363-0.249,10.696-0.307,14.72-0.32c9.961-0.035,12.785,0.008,13.649,0.168l0.002-0.037 c1.978,0.133,2.313,1.332,2.366,1.841c0.004,0.043,0.003,0.086-0.004,0.129c-0.185,1.167-0.656,1.911-2.434,2.016 c-0.054,0.003-0.105-0.002-0.154-0.015C36.94,35.966,11.301,36.143,10.174,36.25z M10.237,33.264c-1.409,0-1.444,0.387-1.5,1.002 c-0.027,0.355,0.073,0.513,0.149,0.6c0.199,0.224,0.636,0.358,1.264,0.388c0.65-0.067,8.39-0.14,14.799-0.18 c9.103-0.057,12.408-0.079,13.625,0.047c0.045-0.023,0.094-0.039,0.147-0.047l0.01,0.066c0.015,0.002,0.029,0.004,0.042,0.006 l-0.005-0.077c1.288-0.076,1.389-0.442,1.495-1.104c-0.107-0.659-0.832-0.847-1.431-0.887c-0.046-0.003-0.091-0.013-0.133-0.027 c-1.617-0.161-26.679-0.151-27.999,0.202c-0.048,0.013-0.097,0.023-0.146,0.017C10.442,33.265,10.336,33.264,10.237,33.264z"/><path fill="#010101" d="M33.907,18.075c-0.436,0-0.873-0.193-1.235-0.545c-0.427-0.415-0.676-0.983-0.683-1.559 c-0.088-0.928,0.899-1.946,1.73-2.027c0.051-0.005,0.103-0.002,0.153,0.009c0.312,0.021,4.704,0.036,5.191-0.026 c0.087-0.023,0.179-0.023,0.267,0.002c0.628,0.18,1.798,0.514,1.923,2.127c-0.036,0.566-0.253,0.994-0.628,1.313 c-0.446,0.38-1.059,0.575-1.789,0.542c-0.345,0.095-1.143,0.111-3.236,0.125c-0.646,0.004-1.375,0.009-1.557,0.024 C33.999,18.071,33.954,18.076,33.907,18.075z M33.816,14.936v0.003c-0.322,0.032-0.864,0.613-0.83,0.979 c0.006,0.347,0.148,0.667,0.382,0.895c0.161,0.156,0.35,0.252,0.513,0.261c0.232-0.03,0.687-0.033,1.711-0.04 c0.93-0.006,2.445-0.017,2.863-0.069c0.086-0.05,0.189-0.073,0.291-0.063c0.51,0.046,0.957-0.063,1.229-0.296 c0.169-0.144,0.263-0.328,0.279-0.549c-0.064-0.754-0.466-0.952-1.124-1.145C38.084,15.019,34.591,14.955,33.816,14.936z"/><path fill="#4b7bb2" d="M38.937,23.529c0.195,0.025-4.991-0.068-5.006-0.034c-0.6,0.036-1.274-0.808-1.293-1.505 c0-0.693,0.448-1.426,1.437-1.447c0.02-0.1,4.797-0.022,4.947-0.074c1.211,0,1.43,1.105,1.391,1.493 C40.452,22.572,39.979,23.479,38.937,23.529z"/><path fill="#4b7bb2" d="M38.965,29.508c-0.835-0.007-3.928,0.069-4.966,0.088c-1.656-0.438-1.418-1.447-1.489-1.659 c0.06-0.767,0.414-1.31,1.55-1.322c1.157-0.122,4.97-0.084,4.924-0.01c1.306,0.031,1.577,0.969,1.55,1.408 C40.458,28.815,39.807,29.477,38.965,29.508z"/><path fill="#010101" d="M38.961,24.028l-0.001-0.029c-0.027,0.003-0.055,0.005-0.085,0.008l-0.002,0.018 c-0.023-0.003-0.045-0.007-0.067-0.013c-0.371,0.021-0.968,0.014-1.929,0.002c-1.117-0.014-2.633-0.036-2.875-0.023 c-0.014,0.002-0.028,0.003-0.042,0.004c-0.361,0.027-0.738-0.134-1.069-0.437c-0.443-0.406-0.739-1.016-0.754-1.553 c0-0.96,0.662-1.934,1.926-1.961v0.003c0.429-0.061,1.279-0.061,3.026-0.058c0.801,0,1.712,0.002,1.854-0.012 c0.83-0.032,1.234,0.307,1.473,0.57c0.456,0.504,0.525,1.158,0.494,1.465c0.033,0.415-0.161,0.951-0.519,1.351 C40.027,23.77,39.532,24,38.961,24.028z M34.909,22.994c0.471,0,1.11,0.008,1.98,0.019c0.93,0.011,1.772,0.023,1.982,0.02 c0.014-0.002,0.027-0.003,0.042-0.004c0.301-0.015,0.547-0.127,0.732-0.334c0.202-0.226,0.28-0.515,0.268-0.702 c0.014-0.203-0.03-0.545-0.239-0.777c-0.144-0.159-0.345-0.24-0.614-0.248c-0.162,0.018-0.563,0.02-1.972,0.019 c-1.016-0.002-2.531-0.003-2.856,0.029c-0.046,0.016-0.096,0.024-0.146,0.025c-0.902,0.02-0.948,0.792-0.948,0.947 c0.007,0.253,0.188,0.608,0.43,0.83c0.147,0.136,0.271,0.169,0.333,0.176l0.002,0.031C34.104,23.003,34.414,22.994,34.909,22.994z"/><path fill="#010101" d="M34,30.096c-0.043,0-0.086-0.005-0.128-0.017c-1.743-0.461-1.814-1.547-1.841-1.956 c-0.021-0.063-0.024-0.159-0.019-0.226c0.092-1.17,0.779-1.77,2.043-1.783c0.001-0.002,3.665-0.235,4.94,0.036l0.001-0.046 c0.83,0.02,1.309,0.355,1.563,0.633c0.383,0.417,0.496,0.948,0.474,1.306c-0.104,1.088-0.985,1.925-2.05,1.964 c-0.007,0-0.015,0-0.023,0c-0.604-0.002-2.424,0.034-3.759,0.063l-1.193,0.025C34.006,30.096,34.002,30.096,34,30.096z M33.015,27.91c0.007,0.049,0.01,0.098,0.014,0.148c0.02,0.303,0.05,0.757,1.033,1.036l1.119-0.023 c1.335-0.029,3.14-0.077,3.776-0.063c0.562-0.026,1.025-0.473,1.081-1.043c0.006-0.1-0.031-0.352-0.213-0.551 c-0.18-0.196-0.467-0.3-0.851-0.31c-0.05-0.001-0.098-0.01-0.144-0.025c-0.483-0.047-3.658-0.079-4.717,0.032 C33.269,27.123,33.068,27.4,33.015,27.91z"/><path fill="#4b7bb2" d="M26.753,34.022c0.127,1.416-0.932,2.413-2.354,2.488c-1.409-0.027-2.548-1.046-2.625-2.486 c0.063-1.396,1.236-2.592,2.511-2.587C25.802,31.59,26.855,32.612,26.753,34.022z"/><path fill="#010101" d="M24.425,37.01c-1.751-0.033-3.061-1.278-3.151-2.959c0.075-1.712,1.449-3.114,3.002-3.114 c0.003,0,0.006,0,0.01,0c1.87,0.187,3.064,1.45,2.967,3.081c0.058,0.754-0.16,1.439-0.631,1.983 C26.1,36.604,25.319,36.962,24.425,37.01z M24.232,31.934c-0.971,0-1.908,0.985-1.959,2.112c0.061,1.095,0.958,1.941,2.135,1.964 c0.584-0.032,1.115-0.269,1.458-0.665c0.298-0.343,0.432-0.785,0.387-1.279c-0.002-0.027-0.002-0.054,0-0.081 c0.079-1.097-0.732-1.921-2.02-2.052C24.233,31.934,24.233,31.934,24.232,31.934z"/></svg>