<svg xmlns="http://www.w3.org/2000/svg" viewBox="0 0 128 128"><path fill="#fff" d="M84 4L74 14 64 4 54 14 44 4 34 14 24 4 14 14 4 4 4 123 84 123z"/><path fill="#9eb9d3" d="M40,106.9c0,5.5,1.2,10.8,3.4,15.5L44,123h37V70c-1.2-0.1-2.7-0.1-4-0.1C56.6,69.9,40,86.5,40,106.9z"/><path fill="#444b54" d="M4 1C2.3 1 1 2.3 1 4v119c0 1.7 1.3 3 3 3s3-1.3 3-3V4C7 2.3 5.7 1 4 1zM84 126c-1.7 0-3-1.3-3-3V11.2l-4.9 4.9c-1.2 1.2-3.1 1.2-4.2 0L64 8.2l-7.9 7.9c-1.2 1.2-3.1 1.2-4.2 0L44 8.2l-7.9 7.9c-1.2 1.2-3.1 1.2-4.2 0l-10-10c-1.2-1.2-1.2-3.1 0-4.2 1.2-1.2 3.1-1.2 4.2 0L34 9.8l7.9-7.9c1.2-1.2 3.1-1.2 4.2 0L54 9.8l7.9-7.9c1.2-1.2 3.1-1.2 4.2 0L74 9.8l7.9-7.9C82.7 1 84 .8 85.1 1.2 86.3 1.7 87 2.8 87 4v119C87 124.7 85.7 126 84 126z"/><path fill="#9eb9d3" d="M69 38H19c-1.7 0-3-1.3-3-3s1.3-3 3-3h50c1.7 0 3 1.3 3 3S70.7 38 69 38zM52 68H19c-1.7 0-3-1.3-3-3s1.3-3 3-3h33c1.7 0 3 1.3 3 3C55 66.7 53.7 68 52 68zM35 83H19c-1.7 0-3-1.3-3-3s1.3-3 3-3h16c1.7 0 3 1.3 3 3S36.7 83 35 83zM29 98H19c-1.7 0-3-1.3-3-3s1.3-3 3-3h10c1.7 0 3 1.3 3 3S30.7 98 29 98zM29 113H19c-1.7 0-3-1.3-3-3s1.3-3 3-3h10c1.7 0 3 1.3 3 3S30.7 113 29 113zM69 53H39c-1.7 0-3-1.3-3-3s1.3-3 3-3h30c1.7 0 3 1.3 3 3S70.7 53 69 53zM19 53c-.8 0-1.6-.3-2.1-.9-.1-.1-.3-.3-.4-.4-.1-.2-.2-.3-.3-.5-.1-.2-.1-.4-.2-.6 0-.2-.1-.4-.1-.6 0-.2 0-.4.1-.6 0-.2.1-.4.2-.6.1-.2.2-.3.3-.5.1-.2.2-.3.4-.5 1.1-1.1 3.1-1.1 4.2 0 .1.1.3.3.4.5s.2.3.3.5c.1.2.1.4.2.6 0 .2.1.4.1.6 0 .2 0 .4-.1.6 0 .2-.1.4-.2.6-.1.2-.2.4-.3.5-.1.2-.2.3-.4.4C20.6 52.7 19.8 53 19 53z"/><path fill="#f8e390" d="M77.2 69A27 27 0 1 0 77.2 123A27 27 0 1 0 77.2 69Z"/><path fill="#dbc272" d="M103.9,99C103,86.7,93.9,76.6,82,74.4c-12.5,2.3-22,13.3-22,26.5c0,9.5,4.9,17.8,12.2,22.6c1.5,0.3,3.1,0.4,4.8,0.4C91.2,123.9,102.9,112.9,103.9,99z"/><path fill="#444b54" d="M77.2,126c-16.5,0-30-13.5-30-30s13.5-30,30-30s30,13.5,30,30S93.7,126,77.2,126z M77.2,72c-13.2,0-24,10.8-24,24s10.8,24,24,24s24-10.8,24-24S90.4,72,77.2,72z"/><path fill="#f8e390" d="M97 69.5A27 27 0 1 0 97 123.5A27 27 0 1 0 97 69.5Z"/><path fill="#444b54" d="M97,126.5c-16.5,0-30-13.5-30-30s13.5-30,30-30s30,13.5,30,30S113.5,126.5,97,126.5z M97,72.5c-13.2,0-24,10.8-24,24s10.8,24,24,24s24-10.8,24-24S110.2,72.5,97,72.5z"/><path fill="#fff" d="M96.9,110.6c-1.3,0-2.3-0.9-2.5-2.1c-0.9-0.3-1.8-0.8-2.5-1.5s-1.4-1.6-1.8-2.6c-0.6-1.3,0-2.7,1.3-3.3c1.2-0.5,2.8,0.1,3.3,1.3c0.2,0.4,0.4,0.7,0.6,0.9c0.2,0.2,0.5,0.3,0.7,0.4c0.7,0.2,1.7,0.2,2.3,0c0.3-0.1,0.5-0.2,0.6-0.4c0.2-0.2,0.3-0.4,0.4-0.7c0.1-0.3,0.2-0.7,0.2-1c0-0.6-0.1-0.9-0.2-1c-0.1-0.2-0.3-0.4-0.6-0.6c-0.3-0.2-0.7-0.4-1.1-0.5c-0.6-0.2-1.2-0.3-1.8-0.5c-0.7-0.2-1.4-0.4-2-0.7C93,98,92.3,97.6,91.7,97c-0.7-0.6-1.2-1.3-1.6-2.1c-0.4-0.8-0.6-1.9-0.6-3.1c0-0.9,0.2-1.7,0.5-2.5s0.8-1.6,1.4-2.3c0.6-0.7,1.4-1.2,2.4-1.6c0.2-0.1,0.5-0.2,0.7-0.2c0.2-1.1,1.2-2,2.5-2c1.2,0,2.2,0.9,2.5,2c0.3,0.1,0.5,0.2,0.8,0.3c0.9,0.4,1.7,1,2.4,1.8c0.6,0.7,1.1,1.5,1.3,2.5c0.2,0.6,0.1,1.3-0.2,1.9c-0.3,0.6-0.8,1-1.5,1.2c-0.2,0.1-0.5,0.1-0.8,0.1c-1.1,0-2.1-0.7-2.4-1.7c-0.1-0.3-0.2-0.5-0.4-0.7c-0.1-0.2-0.3-0.3-0.6-0.4c-0.6-0.3-1.8-0.3-2.4,0c-0.3,0.1-0.5,0.3-0.7,0.4c-0.2,0.2-0.3,0.4-0.4,0.6c-0.1,0.3-0.1,0.5-0.1,0.8c0,0.7,0.1,0.9,0.1,1c0.1,0.2,0.2,0.3,0.3,0.4c0.2,0.2,0.4,0.3,0.7,0.4c0.5,0.2,1,0.4,1.5,0.5c0.7,0.2,1.3,0.4,1.9,0.6c0.9,0.3,1.7,0.6,2.4,1.1c0.9,0.6,1.6,1.3,2.1,2.2c0.6,1,0.9,2.2,0.9,3.6c0,0.9-0.1,1.8-0.4,2.6c-0.3,0.9-0.8,1.8-1.4,2.5c-0.7,0.7-1.5,1.3-2.4,1.7c-0.3,0.1-0.6,0.2-0.9,0.3C99.1,109.8,98.1,110.6,96.9,110.6z"/><path fill="#444b54" d="M113.3 127h-70c-1.7 0-3-1.3-3-3s1.3-3 3-3h70c1.7 0 3 1.3 3 3S115 127 113.3 127zM124 121A3 3 0 1 0 124 127 3 3 0 1 0 124 121z"/></svg>