<svg xmlns="http://www.w3.org/2000/svg" width="512" height="512" viewBox="0 0 512 512"><path fill="#D6E5E5" d="M421.8,329.7c0.1-8.3,0.2-16.7-0.3-25c-0.5-7.7-1.7-15.3-2-23.1c-0.6-16.2,0.9-32.4,0.5-48.6c-0.3-15.8-1.5-31.7-2.2-47.5c-0.7-15.7-1.4-31.2-3.5-46.8c-0.1-1-0.2-1.9-0.4-2.9c-0.2-0.4-0.4-0.9-0.4-1.4c-0.4-0.2-1-0.5-1.2-0.5c-1.1-0.4-4.4-1.1-6.3-1.5c-6.5-1.1-13-1.7-19.6-2.2c-6.7-0.5-13.3-0.9-20-1.4c-4.1-0.3-8.6-0.4-12.6-1.6c-3.7-1.1-5.2-4.2-3.9-7.8c3.2-8.7,4.6-18.2,4.8-27.6c-2,2.6-5,2.1-7,0.3c-0.2,0-0.4,0-0.7,0c-1.1,0-2.2,0.1-3.2,0.1c-2.7,0.1-5.3,0.1-8,0.3c-8.1,0.6-16.1,0.7-24.2,0.9c-16.2,0.3-32.4,1-48.5,1.8c-33.3,1.8-66.5,4-99.8,4.1c-7.1,0-7.9-11-0.8-11c37.9-0.1,75.6-3,113.4-4.8c18.5-0.9,37.2-0.2,55.6-1.7c6-0.5,12.3-1,18.3-0.6c2,0.1,3.7,0.9,4.8,1.9c0-0.2,0-0.4,0-0.6c-0.6-11.6-4-22.8-4.9-34.3c-2.4,0-4.9,0.1-7.3,0.1c-25.8,0-51.6,0.1-77.4,0.3c-50.2,0.3-100.4,0.7-150.6,0.7c0,0.3,0,0.6,0,0.9c0.4,32.2,2.7,64.3,1.3,96.5c-0.7,16.2-1.6,32.5-0.6,48.8c1,16.3,2.1,32.5,2.5,48.8c0.3,16,0.4,32.1-0.9,48.1c-1.2,16-2.3,32-2.1,48.1c0.4,30.4,6.2,60.3,6.8,90.7c26-0.9,52,0.6,78,1.8c27.2,1.3,54.3,1.4,81.6,1.1c2,0,4-0.1,6-0.1c0.1-9,0.1-18-0.3-26.9c-0.1-2.4-0.3-4.9-0.3-7.4c-2.8,0.1-5.5,0.3-8.3,0.4c-18.3,0.6-36.6-0.4-54.9-0.7c-17.5-0.2-34.8,2.9-52.3,1.9c-7.1-0.4-4.9-11.2,2.1-10.8c9.5,0.6,19-0.7,28.5-1.4c8.9-0.7,17.7-0.7,26.5-0.5c17.7,0.4,35.3,1.2,53,0.4c1.9-0.1,3.7-0.2,5.6-0.3c0.4-4.1,1.4-8.2,3.1-12c8.7-19.1,31.4-23.5,50.3-24.9c27.3-2,54.7-4,82-4.6C421.8,341.4,421.8,335.6,421.8,329.7z M168.6,282.4h0.9c0.1,0,0.1,0,0.2,0c15.2,0,30.5,1.1,45.7,1c17.9-0.1,35.9-0.7,53.8-0.9c17.9-0.2,35.6-0.7,53.4-2c17.6-1.3,35.2-2.6,52.8-2.1c7,0.2,7.9,11.2,0.8,11c-18.3-0.5-36.5,0.9-54.7,2.2c-17.8,1.3-35.6,1.6-53.4,1.9c-18,0.3-35.9,0.8-53.9,0.9c-15,0-29.9-1-44.9-1C162.4,293.4,161.5,282.4,168.6,282.4z M166.6,230.4c67.7,0,135.3-3,203-2c7,0.1,7.9,11.1,0.8,11c-67.7-1-135.3,2-203,2C160.3,241.4,159.5,230.4,166.6,230.4z M375.4,184.4c-33.9,0-67.2,2.2-100.8,6.5c-34.2,4.4-68.7,4.5-103.2,4.5c-7.1,0-7.9-11-0.8-11c34.4,0,69,0.1,103.2-4.5c32.9-4.4,65.5-6.4,98.6-6.5c0.1,0,0.1,0,0.2,0h2C381.6,173.4,382.5,184.4,375.4,184.4z M165.6,139.4c17.3,0,34.5-0.4,51.7-1.5c16.6-1,33-3.4,49.7-3.8c17.8-0.4,35.5,0.4,53.3-0.1c8.5-0.2,17-1.1,25.5-1c7.9,0.1,15.9,0.4,23.8,0.4c7,0,7.9,11,0.8,11h-2c-0.2,0-0.5,0-0.7,0c-7.6-0.1-15.3-0.5-22.9-0.4c-8.5,0.1-17,0.9-25.6,1.1c-17.1,0.3-34.3-0.4-51.4,0.1c-17.2,0.5-34.3,2.9-51.5,3.9c-16.6,0.9-33.2,1.3-49.9,1.4C159.3,150.4,158.5,139.4,165.6,139.4z M378.4,336.4c-10.3-0.1-20.7-1-31-1c-10.4,0-20.8,0.4-31.3,1c-20.8,1.3-41.6,3.4-62.4,4.8c-18,1.2-36.6,2.2-54.6,0.9c-5.9-0.4-11.9-1.1-17.8-1.2c-3.8-0.1-10.5-0.9-13.3,1.5c-5.4,4.6-11.4-4.5-6.2-9.1c3.8-3.3,10.3-3.4,15.1-3.4c6.8,0,13.6,0.6,20.4,1.1c17.7,1.4,36,0.5,53.7-0.7c21.4-1.5,42.8-3.7,64.3-4.9c11-0.6,22-1.2,33-1c9.7,0.2,19.5,0.9,29.2,1C384.6,325.5,385.5,336.4,378.4,336.4z"/><path fill="#FEBF10" d="M376,390.5c1.5,9,1.7,18.1,2.6,27.1c0.4,3.8,0.9,7.6,1.4,11.4c0.1-0.1,0.2-0.2,0.3-0.2c1.9-1.6,3.5-3.6,5-5.5c2.4-3.2,6-7.6,6.5-11.5C392.9,402.8,385.4,391.5,376,390.5z"/><path fill="#BCBCBC" d="M382.5,83.5c-5.2-7.3-12.2-13.1-18.1-19.8c-0.6-0.6-1.1-1.3-1.7-1.9c1.4,8.3,3.1,16.5,3.1,24.9c0,10.5-0.9,20.9-3.7,30.9c3.1,0.4,6.3,0.4,9.3,0.6c7.9,0.5,15.7,1,23.5,1.7c2.8,0.3,8.2,0.5,13.6,1.4C400.4,108.4,391.4,96,382.5,83.5z"/><path fill="#FEBF10" d="M340.9,397.1c-0.6-3.7-8.3-12.9-12.4-8.8c-0.9,0.9-1.8,1.4-2.8,1.6c-0.2,7,1.9,13.7,3.2,20.5c0.3,0.1,0.6,0.2,0.9,0.3c2.4,1.1,5.9-2.3,7.2-3.9C339.2,404.2,341.5,400.6,340.9,397.1z"/><path fill="#FEBF10" d="M484.7,425c-0.4-7.8-1.5-15.5-1.9-23.3c-0.7-11.7,1.1-24.8-5.6-35C472,358.6,462,357,453,357c-10-0.1-20.1,1.5-30.1,1.2c-15.6-0.4-31.2,1.2-46.7,2.4c-12.6,1-25.2,1.3-37.7,2.4c-9.4,0.9-19.8,2.1-28.1,7c-10.3,6.1-13.5,15.8-13.2,27.4c0.4,15.9,0.6,31.8,0.6,47.8c0,0.4,0,0.8-0.1,1.2c0.9,1.1,1.3,2.5,1,4.3c-0.3,1.6-0.2,2.5,0.6,3.7c0.9,1.3,0.1,0.5,1.6,1.7c1.3,1,0.7,0.7,2.5,1.6c5.9,3.1,12.5,4.3,19.5,5.2c31.5,4.2,64.4,1,95.8-2.2c12.4-1.3,24.9-2.7,37.3-4.4c4.8-0.7,10-1,14.6-2.3c5.9-1.7,12.3-4.6,12.4-11.7C483.2,436.2,482.6,430.5,484.7,425z M330.2,422c0.2,6.1-0.3,12.1-0.3,18.3c-0.1,7.1-11,7.9-11,0.8c0.1-9.7,1.2-19.3-0.8-28.9c-1.7-8.6-3.8-16.8-3.1-25.6c0.2-2.9,2.1-4.2,4.3-4.3c0.2-0.4,0.5-0.8,0.9-1.2c10.9-11,31,1,31.6,15.2C352.4,407.2,342.2,422.7,330.2,422z M402.3,415c-2.2,7-6.7,13.7-11.8,19c-3.1,3.2-6.7,6.5-10.9,7.3c-3.1,4.9-12.2,2.7-10.1-3.5c0.5-1.5-0.3-5.7-0.6-8.2c-0.5-3.7-1-7.5-1.3-11.2c-1-10.9-0.9-22.1-3.9-32.7c-1.6-5.6,5.2-9.1,8.7-6.3c0,0,0,0,0.1,0c9.1-0.9,17.4,3.8,23,10.8C400.5,396.6,404.9,406.8,402.3,415z M457.3,387.4c-6.1,0.5-12.2-1.1-18.2-2c-3.9-0.6-10.1-2.4-14.3-0.9c2,5.5,2.4,11.1,2.3,16.9h21.4c7.1,0,7.9,11,0.8,11h-22.7c-0.2,5.3-0.3,10.6,0.6,15.7c0.7,0.8,1.2,1.9,1.2,3.4v2c0,5.9-8.9,8.6-10.7,2.2c-2.6-8.9-1.9-18-1.5-27.1c0.4-8.3,0.9-17.4-3.9-24.6c-3-4.5,1.6-9.2,5.7-8.5c11.2-7,26.5,1.9,38.4,0.9C463.5,375.9,464.3,386.9,457.3,387.4z"/><path d="M369.6 133.4c-8 0-15.9-.4-23.8-.4-8.5-.1-17 .8-25.5 1-17.8.5-35.5-.3-53.3.1-16.6.4-33.1 2.8-49.7 3.8-17.2 1.1-34.5 1.5-51.7 1.5-7.1 0-6.2 11 .8 11 16.6 0 33.3-.4 49.9-1.4 17.2-1 34.3-3.4 51.5-3.9 17.1-.5 34.3.2 51.4-.1 8.5-.2 17-1 25.6-1.1 7.6-.1 15.3.3 22.9.4.2 0 .5 0 .7 0h2C377.5 144.4 376.6 133.5 369.6 133.4zM374.6 173.4h-2c-.1 0-.1 0-.2 0-33.1.1-65.8 2.1-98.6 6.5-34.2 4.6-68.8 4.5-103.2 4.5-7.1 0-6.2 11 .8 11 34.4 0 69 0 103.2-4.5 33.6-4.4 66.9-6.5 100.8-6.5C382.5 184.4 381.6 173.4 374.6 173.4zM369.6 228.4c-67.7-1-135.3 2-203 2-7.1 0-6.2 11 .8 11 67.7 0 135.3-3 203-2C377.5 239.5 376.6 228.5 369.6 228.4zM375.6 278.4c-17.6-.5-35.2.8-52.8 2.1-17.8 1.3-35.6 1.8-53.4 2-17.9.2-35.9.8-53.8.9-15.3.1-30.5-.9-45.7-1-.1 0-.1 0-.2 0h-.9c-7.1 0-6.2 11 .8 11 15 0 29.9 1 44.9 1 18-.1 35.9-.6 53.9-.9 17.9-.3 35.6-.6 53.4-1.9 18.2-1.3 36.5-2.8 54.7-2.2C383.5 289.6 382.6 278.6 375.6 278.4zM377.6 325.4c-9.8-.1-19.5-.8-29.2-1-11-.2-22 .4-33 1-21.4 1.3-42.8 3.4-64.3 4.9-17.7 1.2-36 2.1-53.7.7-6.8-.5-13.6-1.1-20.4-1.1-4.8 0-11.2.1-15.1 3.4-5.3 4.6.8 13.8 6.2 9.1 2.8-2.5 9.5-1.6 13.3-1.5 5.9.1 11.9.8 17.8 1.2 18 1.3 36.6.3 54.6-.9 20.8-1.4 41.5-3.5 62.4-4.8 10.4-.6 20.8-1 31.3-1 10.3 0 20.7.9 31 1C385.5 336.4 384.6 325.5 377.6 325.4z"/><path d="M494.7,425.1c-0.4-6-1.2-12-1.6-18c-0.4-6.6-0.3-13.2-0.5-19.8c-0.3-11.6-2.9-22.7-11.3-31.2c-12.1-12.3-32.3-9.8-49.1-8.6c-0.3-14.3,0.6-28.6,0-42.9c-0.4-7.7-1.6-15.4-1.9-23.1c-0.3-7.8-0.1-15.6,0.2-23.4c1.1-30.6-0.9-61.1-2.1-91.7c-0.5-10.9-1.9-21.6-3-32.4c1.7-1.7,2.2-4.3,0.7-6.8c-0.4-0.7-0.9-1.2-1.5-1.6c0-0.4-0.1-0.8-0.1-1.1l-0.9,0c-9.6-16.8-21-32.4-32-48.3c-5-7.1-11.9-12.9-17.7-19.2c-3.1-3.4-5.6-7.3-7.8-11.4c-1.5-2.7-2.5-4.7-4.4-6.3c-0.9-1.5-2.5-2.6-4.8-2.6c-1,0-1.7,0.1-2.7,0.4c-0.5,0.1-0.9,0.3-1.2,0.6c-2,0-4.1,0-6.1,0c-26.5-0.1-52.9-0.2-79.4-0.2c-52.2,0-104.4,0.1-156.6-0.2c-2.4,0-4,1.3-4.6,3c-0.9,0.9-1.5,2.2-1.5,3.9c-0.1,32.2,2.4,64.3,1,96.5c-0.7,16.2-1.8,32.5-1.4,48.7c0.4,16.3,1.9,32.5,2.3,48.8c0.4,16.3,0.7,32.8-0.7,49.1c-1.3,15.7-2.5,31.4-2.7,47.2c-0.5,31.6,5.6,62.7,6.2,94.2c0,1.8,0,3.6,0,5.4c0,2.5,1.3,4,3,4.6c0.9,1.5,2.5,2.6,4.8,2.5c28-1.1,55.9,0.7,83.8,2.2c27.9,1.5,55.7,1.6,83.6,1.5c0.4,0,0.8,0,1.2,0c0,0.3,0,0.6,0,0.9c0,1.3,0.4,2.4,1,3.1c-3.8,24.7,38.1,25.7,53.3,26.4c32.1,1.4,64.6-1.5,96.5-5.1c8.4-0.9,16.8-2,25.2-3.1c8-1.1,15.7-2.4,22.5-7.1c4.5-3.1,7.2-7.6,8.3-12.8c0.9-4.1,0-8.5,0.4-12.7c1.2-1,1.9-2.4,1.9-4.3c0-0.8,0-1.7-0.1-2.5C495.1,426.8,495,425.9,494.7,425.1z M363.8,62.2c0.5,0.7,1.1,1.3,1.7,2c5.9,6.7,12.9,12.5,18,19.9c8.8,12.6,17.7,25,25.8,38c-5.4-0.9-10.8-1.2-13.6-1.5c-7.8-0.8-15.7-1.3-23.5-1.8c-3-0.2-6.2-0.3-9.3-0.7c2.9-10,3.9-20.4,3.9-30.9C366.8,78.7,365.2,70.4,363.8,62.2z M289,376.7c-1.8,3.8-2.7,7.8-3.2,12c-1.9,0.1-3.7,0.2-5.6,0.2c-17.7,0.7-35.3-0.2-53-0.7c-8.9-0.3-17.7-0.3-26.5,0.3c-9.5,0.7-19,1.9-28.5,1.3c-7-0.5-9.2,10.3-2.2,10.8c17.4,1.1,34.8-1.9,52.3-1.6c18.3,0.4,36.5,1.5,54.8,1c2.8-0.1,5.5-0.2,8.3-0.3c0.1,2.5,0.2,5,0.3,7.4c0.4,9,0.3,17.9,0.2,26.9c-2,0-4,0-6,0c-27.2,0.2-54.4-0.1-81.6-1.6c-26-1.4-52-3-78-2.2c-0.3-30.4-6-60.4-6.3-90.7c-0.1-16.1,1.1-32.1,2.4-48.1c1.3-16,1.4-32,1.1-48.1c-0.3-16.3-1.3-32.6-2.2-48.8c-0.9-16.2,0.1-32.5,0.9-48.7c1.6-32.2-0.5-64.3-0.8-96.5c0-0.3,0-0.6,0-0.9c50.2,0.3,100.4,0.2,150.6,0.1c25.8,0,51.6,0,77.4,0.1c2.4,0,4.9,0,7.3,0c0.9,11.5,4.2,22.7,4.7,34.3c0,0.2,0,0.4,0,0.6c-1.2-1.1-2.8-1.8-4.8-2c-6-0.4-12.3,0.1-18.3,0.5c-18.4,1.4-37.1,0.7-55.6,1.4c-37.8,1.5-75.6,4.3-113.5,4.1c-7.1,0-6.3,10.9,0.8,11c33.3,0.1,66.6-1.9,99.9-3.5c16.2-0.8,32.3-1.4,48.5-1.6c8.1-0.1,16.1-0.2,24.2-0.7c2.7-0.2,5.3-0.2,8-0.3c1.1,0,2.2-0.1,3.2-0.1c0.2,0,0.5,0,0.7,0c2,1.8,4.9,2.3,7-0.2c-0.3,9.4-1.7,18.8-4.9,27.6c-1.4,3.6,0.2,6.7,3.8,7.9c4,1.3,8.5,1.4,12.6,1.7c6.7,0.5,13.3,1,20,1.5c6.5,0.5,13.1,1.2,19.5,2.3c1.9,0.3,5.3,1.1,6.3,1.5c0.2,0.1,0.7,0.3,1.2,0.5c0.1,0.5,0.2,1,0.4,1.4c0.1,1,0.2,1.9,0.3,2.9c2,15.6,2.6,31.1,3.2,46.8c0.6,15.8,1.7,31.7,2,47.5c0.3,16.2-1.3,32.4-0.8,48.6c0.3,7.7,1.5,15.4,1.9,23.1c0.5,8.3,0.3,16.7,0.1,25c-0.1,5.9-0.1,11.7,0.1,17.5c-27.4,0.4-54.7,2.2-82.1,4.1C320.6,353.4,297.9,357.7,289,376.7z M482.1,443.2c-0.1,7.1-6.6,9.9-12.4,11.6c-4.6,1.3-9.8,1.6-14.6,2.2c-12.4,1.6-24.8,3-37.3,4.2c-31.5,3-64.3,6-95.8,1.7c-7-1-13.6-2.2-19.5-5.3c-1.8-0.9-1.2-0.6-2.4-1.6c-1.6-1.3-0.7-0.4-1.6-1.7c-0.8-1.1-0.9-2-0.6-3.7c0.3-1.8-0.1-3.2-1-4.3c0.1-0.4,0.1-0.8,0.1-1.2c0.1-15.9-0.1-31.8-0.4-47.8c-0.2-11.7,3-21.3,13.3-27.4c8.3-4.9,18.7-6,28.1-6.8c12.5-1.1,25.2-1.3,37.7-2.2c15.5-1.1,31.1-2.6,46.7-2.1c10,0.3,20.1-1.2,30.1-1.1c9,0.1,19,1.7,24.2,9.9c6.6,10.3,4.8,23.4,5.4,35.1c0.4,7.8,1.4,15.5,1.8,23.3C481.6,431.6,482.2,437.3,482.1,443.2z"/><path d="M351.9 396.2c-.6-14.2-20.7-26.2-31.6-15.2-.4.4-.7.8-.9 1.2-2.2.1-4.1 1.4-4.3 4.3-.6 8.9 1.4 17 3.1 25.6 1.9 9.6.9 19.2.8 28.9-.1 7.1 10.9 6.2 11-.8.1-6.1.5-12.2.3-18.3C342.2 422.7 352.4 407.2 351.9 396.2zM337.1 406.8c-1.3 1.6-4.8 5.1-7.2 3.9-.3-.1-.6-.2-.9-.3-1.3-6.8-3.5-13.6-3.2-20.5 1-.2 1.9-.7 2.8-1.6 4.1-4.2 11.8 5.1 12.4 8.8C341.5 400.6 339.2 404.2 337.1 406.8zM395.5 390.3c-5.5-7-13.9-11.7-23-10.8 0 0 0 0-.1 0-3.5-2.8-10.3.7-8.7 6.3 3 10.6 2.9 21.8 3.9 32.7.3 3.8.9 7.5 1.3 11.2.3 2.5 1.1 6.7.6 8.2-2.1 6.2 7 8.4 10.1 3.5 4.2-.9 7.8-4.1 10.9-7.3 5.1-5.3 9.6-12 11.8-19C404.9 406.8 400.5 396.6 395.5 390.3zM391.8 411.8c-.5 3.9-4 8.3-6.5 11.5-1.5 1.9-3.2 3.9-5 5.5-.1.1-.2.2-.3.2-.4-3.8-1-7.6-1.4-11.4-.9-9.1-1.1-18.2-2.6-27.1C385.4 391.5 392.9 402.8 391.8 411.8zM456.4 376.5c-11.9.9-27.3-7.9-38.4-.9-4.1-.7-8.7 4-5.7 8.5 4.8 7.2 4.2 16.3 3.9 24.6-.4 9.2-1.1 18.2 1.5 27.1 1.8 6.3 10.7 3.7 10.7-2.2v-2c0-1.4-.5-2.6-1.2-3.4-.9-5.2-.8-10.4-.6-15.7h22.7c7.1 0 6.2-11-.8-11h-21.4c.1-5.8-.3-11.5-2.3-16.9 4.2-1.5 10.4.2 14.3.9 5.9 1 12.1 2.5 18.2 2C464.3 386.9 463.5 375.9 456.4 376.5z"/></svg>