<svg xmlns="http://www.w3.org/2000/svg" viewBox="0 0 100 100"><path fill="#a3a3cd" d="M90,65c0,3.314-2.686,6-6,6H68v-1H16c-2.761,0-5-2.239-5-5V21c0-2.761,2.239-5,5-5h68 c2.761,0,5,2.239,5,5v13h1V65z"/><path fill="#d0d0e3" d="M85.5,54h-71c-0.276,0-0.5-0.224-0.5-0.5v-31c0-0.276,0.224-0.5,0.5-0.5h71 c0.276,0,0.5,0.224,0.5,0.5v31C86,53.776,85.776,54,85.5,54z"/><path fill="#fefdef" d="M11,56.5V65c0,2.761,2.239,5,5,5h52v1h16c3.314,0,6-2.686,6-6v-8H68.5v-0.5H11z"/><circle cx="50" cy="62" r="2.5" fill="#ceccbe"/><path fill="#ceccbe" d="M66.323,79H65c-2.761,0-5-2.239-5-5v-3.959c0-0.023-20-0.023-20,0V74c0,2.761-2.239,5-5,5h-1.323 c-1.328,0-2.553,0.953-2.668,2.276C30.881,82.757,32.045,84,33.5,84c1.127,0,31.875,0,33,0c1.455,0,2.619-1.243,2.49-2.724 C68.875,79.953,67.65,79,66.323,79z"/><g><path fill="#1f212b" d="M68,71H16c-3.309,0-6-2.691-6-6V21c0-3.309,2.691-6,6-6h68c3.309,0,6,2.691,6,6v13 c0,0.552-0.447,1-1,1s-1-0.448-1-1V21c0-2.206-1.794-4-4-4H16c-2.206,0-4,1.794-4,4v44c0,2.206,1.794,4,4,4h52c0.553,0,1,0.448,1,1 S68.553,71,68,71z"/><path fill="#1f212b" d="M68.5,57H11c-0.276,0-0.5-0.224-0.5-0.5S10.724,56,11,56h57.5c0.276,0,0.5,0.224,0.5,0.5 S68.776,57,68.5,57z"/><path fill="#1f212b" d="M67.5,54h-53c-0.276,0-0.5-0.224-0.5-0.5v-3c0-0.276,0.224-0.5,0.5-0.5s0.5,0.224,0.5,0.5V53h52.5 c0.276,0,0.5,0.224,0.5,0.5S67.776,54,67.5,54z"/><path fill="#1f212b" d="M14.5,47c-0.276,0-0.5-0.224-0.5-0.5v-3c0-0.276,0.224-0.5,0.5-0.5s0.5,0.224,0.5,0.5v3 C15,46.776,14.776,47,14.5,47z"/><path fill="#1f212b" d="M14.5,39c-0.276,0-0.5-0.224-0.5-0.5v-16c0-0.276,0.224-0.5,0.5-0.5h71c0.276,0,0.5,0.224,0.5,0.5v7 c0,0.276-0.224,0.5-0.5,0.5S85,29.776,85,29.5V23H15v15.5C15,38.776,14.776,39,14.5,39z"/><path fill="#1f212b" d="M51.5,20h-3c-0.276,0-0.5-0.224-0.5-0.5s0.224-0.5,0.5-0.5h3c0.276,0,0.5,0.224,0.5,0.5 S51.776,20,51.5,20z"/><path fill="#1f212b" d="M50,65c-1.654,0-3-1.346-3-3s1.346-3,3-3s3,1.346,3,3S51.654,65,50,65z M50,60c-1.103,0-2,0.897-2,2 s0.897,2,2,2s2-0.897,2-2S51.103,60,50,60z"/><path fill="#1f212b" d="M66.5,85h-33c-0.979,0-1.919-0.414-2.58-1.135c-0.661-0.721-0.991-1.696-0.906-2.676 C30.169,79.401,31.779,78,33.678,78H35c2.206,0,4-1.794,4-4v-4c0-0.552,0.447-1,1-1h20c0.553,0,1,0.448,1,1v4c0,2.206,1.794,4,4,4 h1.322c1.898,0,3.509,1.401,3.664,3.189c0.085,0.979-0.245,1.955-0.906,2.676C68.419,84.586,67.479,85,66.5,85z M33.678,80 c-0.856,0-1.606,0.611-1.672,1.363c-0.037,0.428,0.101,0.837,0.388,1.15C32.682,82.827,33.074,83,33.5,83h33 c0.426,0,0.818-0.173,1.106-0.487c0.287-0.313,0.425-0.722,0.388-1.15C67.929,80.611,67.179,80,66.322,80H65c-3.309,0-6-2.691-6-6 v-3H41v3c0,3.309-2.691,6-6,6H33.678z"/><path fill="#1f212b" d="M48.499,80H33.5c-0.276,0-0.5-0.224-0.5-0.5s0.224-0.5,0.5-0.5h14.999c0.276,0,0.5,0.224,0.5,0.5 S48.775,80,48.499,80z"/><path fill="#1f212b" d="M53.5,80h-2c-0.276,0-0.5-0.224-0.5-0.5s0.224-0.5,0.5-0.5h2c0.276,0,0.5,0.224,0.5,0.5 S53.776,80,53.5,80z"/></g><g><path fill="#eaa871" d="M72,61l2.659,20.388C74.854,82.882,76.127,84,77.634,84h12.732c1.507,0,2.78-1.118,2.975-2.612 L96,61H72z"/><rect width="22.5" height="3" x="72.5" y="65.5" fill="#fdd4b2"/><path fill="#70b570" d="M91.5,61.5c0,0,5-5,5-17c-7,2-14,8-16,16"/><path fill="#8cc78c" d="M84.5,52.575V52.5c-3-8-11-12-11-12s-2,3-2,9c0,8,5,12,5,12h3.875l0.125-1 C81.237,57.553,82.656,54.88,84.5,52.575z"/><path fill="#a0d2a1" d="M83.5,33.5c-4,6-5,10.5-5,10.5v0.05c2.218,1.985,4.629,4.795,6,8.45v0.109 c1.316-1.649,2.835-3.123,4.5-4.356V48C89,48,89.5,41.5,83.5,33.5z"/></g><g><path fill="#1f212b" d="M90.366,85H77.634c-2.002,0-3.707-1.497-3.966-3.482l-2.659-20.388 c-0.038-0.286,0.05-0.573,0.24-0.789C71.438,60.124,71.712,60,72,60h24c0.288,0,0.562,0.124,0.751,0.34 c0.19,0.216,0.278,0.503,0.24,0.789l-2.659,20.388C94.073,83.503,92.368,85,90.366,85z M73.139,62l2.512,19.259 C75.78,82.251,76.633,83,77.634,83h12.732c1.001,0,1.854-0.749,1.983-1.741L94.861,62H73.139z"/><rect width="22.825" height="1" x="72.597" y="65" fill="#1f212b"/><rect width="22.021" height="1" x="72.979" y="68" fill="#1f212b"/><path fill="#1f212b" d="M89.498,48.039l-0.997-0.076c0.005-0.062,0.381-6.114-4.978-13.585 c-3.579,5.555-4.526,9.689-4.535,9.731l-0.977-0.217c0.042-0.188,1.066-4.66,5.072-10.669c0.09-0.135,0.24-0.218,0.402-0.223 c0.16-0.004,0.316,0.07,0.414,0.2C89.943,41.258,89.52,47.765,89.498,48.039z"/><path fill="#1f212b" d="M83.5,46c-0.276,0-0.5-0.224-0.5-0.5v-8c0-0.276,0.224-0.5,0.5-0.5s0.5,0.224,0.5,0.5v8 C84,45.776,83.776,46,83.5,46z"/><path fill="#1f212b" d="M78.5,56c-0.161,0-0.319-0.078-0.416-0.223c-4.021-6.032-5.039-14.85-5.081-15.222 c-0.03-0.274,0.167-0.521,0.441-0.552c0.28-0.027,0.522,0.167,0.553,0.442c0.01,0.089,1.035,8.952,4.919,14.778 c0.153,0.23,0.091,0.54-0.139,0.693C78.692,55.973,78.596,56,78.5,56z"/><path fill="#1f212b" d="M89.774,55c-0.103,0-0.205-0.031-0.294-0.096c-0.224-0.162-0.272-0.475-0.11-0.698 c3.349-4.609,6.673-9.918,6.706-9.971c0.146-0.234,0.457-0.305,0.688-0.159c0.234,0.146,0.306,0.455,0.159,0.689 c-0.033,0.053-3.376,5.392-6.745,10.029C90.081,54.929,89.929,55,89.774,55z"/><path fill="#1f212b" d="M87.5,58c-0.11,0-0.221-0.036-0.313-0.11c-0.216-0.172-0.25-0.487-0.078-0.703 c0.256-0.319,0.515-0.651,0.777-0.993c0.168-0.218,0.483-0.26,0.701-0.091c0.219,0.168,0.26,0.482,0.092,0.701 c-0.267,0.346-0.529,0.683-0.789,1.007C87.791,57.936,87.646,58,87.5,58z"/><path fill="#1f212b" d="M75.121,60.833C73.582,59.105,71,55.337,71,49.5c0-6.082,1.999-9.15,2.084-9.277 c0.14-0.21,0.416-0.283,0.64-0.17c0.334,0.167,8.211,4.181,11.244,12.271l-0.936,0.352c-2.509-6.69-8.678-10.558-10.339-11.501 C73.188,42.157,72,44.95,72,49.5c0,5.505,2.423,9.046,3.867,10.667L75.121,60.833z"/><path fill="#1f212b" d="M92.71,60.79l-0.814-0.579c1.202-1.693,3.959-6.495,4.099-15.034 c-6.139,1.981-13.002,7.418-15.009,15.445l-0.971-0.242c2.174-8.696,9.777-14.482,16.348-16.36 c0.153-0.042,0.313-0.013,0.438,0.082C96.927,44.195,97,44.343,97,44.5C97,53.418,94.313,58.534,92.71,60.79z"/></g></svg>