<svg xmlns="http://www.w3.org/2000/svg" width="512" height="512" viewBox="0 0 512 512"><path fill="#EF4823" d="M381.5,246.5c-7.2-42-48.8-83.8-93-82.7v28.8c19.8,13.1,35.2,33,39.8,56.6c4,20.3-1.1,43.7-12.6,60.9c-10.8,16.1-26.6,27.4-45.2,33c-20.7,6.2-43.8,7.8-64.8,2.5c-21.6-5.5-43.4-18.5-54.2-38.7c-7.1-13.2-8.3-29.5-7.6-44.2c1.3-25.7,10.5-69.3,41.5-73.4c-2.1-8.8-3.2-18.8-0.8-27c-0.5-0.5-1-1.2-1.4-2c-2.8-6.6-21.3,2.3-25.5,4.1c-13.4,5.5-26.3,12.8-36.8,22.9c-10.9,10.5-18.9,22.9-22.8,37.5c-3.6,13.8-4.6,28.1-3,42.3c2.8,24.6,12.2,48.8,27.4,68.4c15.6,20,37.9,35,61.6,43.8c23.9,8.9,49.9,11.8,75.2,9.1c24.2-2.6,48.8-9.2,69.1-23.2c18.7-12.8,33.5-30.6,42.7-51.4C380.3,293.5,385.3,268.8,381.5,246.5z"/><path fill="#D6E5E5" d="M463.4,170.4c-21.3-43.4-61.6-77.5-104.2-99C316.4,49.7,266.9,38.3,219,45.9C140.1,58.3,63.7,116.2,41.1,193.8c0,0.9-0.2,1.7-0.7,2.6c-0.4,1.4-0.8,2.9-1.1,4.3c-0.5,1-1,2-1.4,3.1c-0.1,0.9-0.3,1.9-0.4,2.7c-0.9,4.1-2,8.2-2.7,12.3c-1.4,7.7-1.1,15.7-3.8,23c-0.2,2.1-0.5,4.2-0.8,6.3c0,0.3,0,0.5,0,0.7c-0.5,4.4-0.9,8.8-1.3,13.2c-0.8,9.2-1.2,18.4-1.1,27.6c0.3,18.1,2.4,36.2,6.9,53.7c8.7,33.3,25.5,64.8,52,87.3c18.2,15.5,39.5,25.7,62.4,32.3c25,7.3,51,11.4,77.1,11.5c51.5,0.1,103.2-13.9,145.6-43.7C450.2,375.5,509.3,263.9,463.4,170.4z M204.8,147.2c-1.5-3.2-0.2-7.7,4.3-7.7c14.4,0.1,29.6,1.7,43.6-2.7c3.2-1,7.3,1.1,7.3,4.8c0.1,30.1,5.7,59.9,2.9,90c-0.2,2.3-2.7,4.4-5,4.4c-9.3,0.1-18.6,1.8-27.9,1.7c-6-0.1-13.1-0.5-18.4-3.7c-3.1,2.7-9,1.8-9-3.4v-2.6c0-0.1,0-0.2,0-0.2c0.1-10.4,0.4-20.8-0.5-31.2c-1.3-14.5-2.4-29-2.5-43.6C199.5,149.5,202.1,147.5,204.8,147.2z M374.3,332.1c-11.7,19.4-27.9,36.2-47.7,47.4c-21.5,12.1-46.3,18.6-70.8,20.3c-50.3,3.7-104.2-13.4-137.6-52.5C87.1,311.1,72.4,254,92.2,209c10.2-23.1,30.6-40.4,53.1-51c12.2-5.8,38.4-19,47.5-3c3.1,0.8,5.6,4,3.7,7.6c-2.4,4.5-1.9,10.4-1.4,15.2c0.3,3.1,0.7,6.2,1.3,9.2c1.3,0.8,2.2,2.1,2.2,4.2v4.5c0,5.1-6.2,7.6-9.3,4.5c-21.2,1.7-29.6,28.8-32.6,46.5c-3.7,22.2-4,48,12.1,65.4c16.1,17.4,39.2,25.8,62.6,25.8c21.3,0,44.4-4.5,61.3-18.1c16-12.9,26-34.7,26.1-55.3c0.1-25.1-14.5-48.3-35.2-61.9c-0.5-0.3-0.9-0.7-1.3-1.1c-2.5-0.1-4.8-1.7-4.8-4.9v-39c0-5.4,6.4-7.2,9.4-4.6c40.5-1.7,77.8,28.3,95.6,63C401,252.1,394.8,297.9,374.3,332.1z"/><path fill="#EF4823" d="M249.1,149c-12.7,2.5-25.9,1.6-38.9,1.5c0.1,0.5,0.2,1,0.2,1.6c0.1,15.2,1.3,30.4,2.6,45.5c0.7,7.7,0.6,15.6,0.4,23.4c0.7,0.4,1.4,1,2,1.9c3.2,5,13.5,3.9,18.5,3.7c6.1-0.3,12.3-1.1,18.4-1.4C254.1,199.8,249.9,174.4,249.1,149z"/><path d="M463,149.5c-25.2-40.4-65.9-71.6-108.7-91.6c-43.3-20.2-92.9-29.5-140.3-21.3c-81.8,14.2-160,74.7-182.9,155.6c-3.3,5.5-3.8,13.1-5.2,19.2c-1,4.3-1.7,8.7-2.3,13.1c-0.1,0.4-0.1,0.9-0.2,1.3c-0.1,0.3-0.2,0.5-0.2,0.8c-0.8,4.2-1.5,8.4-2.1,12.6c0,0.1-0.1,0.1-0.1,0.2c-0.5,1.2-0.6,2.3-0.4,3.2c-1,8.1-1.7,16.2-2.3,24.3c-0.8,11.4-0.9,22.9-0.3,34.3c1.3,22.3,5.6,44.5,13.3,65.5c15.3,41.8,45.5,76.5,86.1,95.3c23.1,10.6,48.8,16.7,73.9,20c25.5,3.3,51.5,3.1,77-0.6c50.9-7.4,98.5-29.7,136.1-64.8c36.4-33.9,65-77.6,78.1-125.8C495.8,242.9,489.5,192,463,149.5z M371.7,430.8c-42.4,29.8-94.1,43.8-145.6,43.7c-26.1-0.1-52.1-4.2-77.1-11.5c-22.9-6.7-44.2-16.8-62.4-32.3c-26.5-22.5-43.3-54-52-87.3c-4.6-17.5-6.6-35.6-6.9-53.7c-0.2-9.2,0.2-18.4,1.1-27.6c0.4-4.4,0.8-8.8,1.3-13.2c0-0.2,0-0.5,0-0.7c0.3-2.1,0.6-4.2,0.8-6.3c2.7-7.3,2.4-15.4,3.8-23c0.8-4.1,1.8-8.2,2.7-12.3c0.2-0.8,0.3-1.7,0.4-2.7c0.4-1,0.9-2.1,1.4-3.1c0.4-1.4,0.7-2.9,1.1-4.3c0.5-0.9,0.8-1.8,0.7-2.6c22.6-77.6,99-135.5,177.9-147.9c47.9-7.6,97.3,3.8,140.1,25.5c42.6,21.5,82.8,55.7,104.2,99C509.3,263.9,450.2,375.5,371.7,430.8z"/><path d="M260,141.6c0-3.7-4.1-5.8-7.3-4.8c-14,4.4-29.2,2.8-43.6,2.7c-4.5,0-5.8,4.5-4.3,7.7c-2.7,0.3-5.3,2.3-5.3,5.7c0.1,14.6,1.2,29.1,2.5,43.6c0.9,10.3,0.6,20.8,0.5,31.2c0,0.1,0,0.2,0,0.2v2.6c0,5.2,5.9,6.1,9,3.4c5.3,3.2,12.4,3.6,18.4,3.7c9.3,0.1,18.6-1.6,27.9-1.7c2.2,0,4.8-2.1,5-4.4C265.7,201.5,260.1,171.7,260,141.6z M252.4,225.2c-6.1,0.4-12.3,1.2-18.4,1.4c-5,0.2-15.3,1.3-18.5-3.7c-0.6-0.9-1.2-1.5-2-1.9c0.1-7.8,0.3-15.7-0.4-23.4c-1.4-15.2-2.6-30.3-2.6-45.5c0-0.6-0.1-1.1-0.2-1.6c13,0.1,26.1,1,38.9-1.5C249.9,174.4,254.1,199.8,252.4,225.2z"/><path d="M382.5,215.9c-17.8-34.7-55.1-64.7-95.6-63c-3-2.6-9.4-0.8-9.4,4.6v39c0,3.2,2.3,4.8,4.8,4.9c0.3,0.4,0.8,0.8,1.3,1.1c20.7,13.6,35.3,36.8,35.2,61.9c-0.1,20.6-10,42.4-26.1,55.3c-17,13.7-40,18.1-61.3,18.1c-23.5,0-46.6-8.3-62.6-25.8c-16.1-17.4-15.8-43.2-12.1-65.4c3-17.8,11.4-44.8,32.6-46.5c3.1,3.1,9.3,0.6,9.3-4.5v-4.5c0-2-0.9-3.4-2.2-4.2c-0.6-3-1-6.1-1.3-9.2c-0.5-4.9-1-10.8,1.4-15.2c2-3.6-0.5-6.8-3.7-7.6c-9.1-16-35.3-2.8-47.5,3c-22.5,10.7-42.9,27.9-53.1,51c-19.8,45-5,102.1,25.9,138.4c33.4,39.1,87.4,56.2,137.6,52.5c24.5-1.8,49.4-8.2,70.8-20.3c19.8-11.2,36-28,47.7-47.4C394.8,297.9,401,252.1,382.5,215.9z M371.3,313.9c-9.1,20.7-24,38.5-42.7,51.4c-20.2,13.9-44.9,20.6-69.1,23.2c-25.3,2.7-51.3-0.2-75.2-9.1c-23.7-8.8-46-23.7-61.6-43.8c-15.2-19.6-24.6-43.8-27.4-68.4c-1.6-14.2-0.7-28.5,3-42.3c3.9-14.7,11.9-27.1,22.8-37.5c10.5-10.1,23.4-17.4,36.8-22.9c4.2-1.7,22.7-10.6,25.5-4.1c0.3,0.8,0.8,1.4,1.4,2c-2.4,8.2-1.3,18.3,0.8,27c-31,4.1-40.2,47.7-41.5,73.4c-0.8,14.7,0.4,31,7.6,44.2c10.9,20.2,32.6,33.3,54.2,38.7c21,5.3,44.2,3.7,64.8-2.5c18.6-5.5,34.4-16.9,45.2-33c11.5-17.2,16.6-40.7,12.6-60.9c-4.6-23.6-20-43.6-39.8-56.6v-28.8c44.3-1.1,85.8,40.7,93,82.7C385.3,268.8,380.3,293.5,371.3,313.9z"/></svg>