<?xml version="1.0" encoding="utf-8"?>
<!-- Generator: Adobe Illustrator 27.0.0, SVG Export Plug-In . SVG Version: 6.00 Build 0)  -->
<svg version="1.1" id="Calque_1" xmlns="http://www.w3.org/2000/svg" xmlns:xlink="http://www.w3.org/1999/xlink" x="0px" y="0px"
	 viewBox="0 0 100 100" style="enable-background:new 0 0 100 100;" xml:space="preserve">
<style type="text/css">
	.st0{display:none;fill:#FFFFFF;}
	.st1{fill:#EE3E54;}
	.st2{fill:#472B29;}
	.st3{fill:#FDFCEF;}
</style>
<path class="st0" d="M58.5,78c-1.4,0-2.5,1.1-2.5,2.5s1.1,2.5,2.5,2.5s2.5-1.1,2.5-2.5S59.9,78,58.5,78z M23,68c-0.5,0-1,0.4-1,1
	s0.4,1,1,1l0,0c0.5,0,1-0.4,1-1S23.6,68,23,68z"/>
<path class="st0" d="M78,66c-1.1,0-2,0.9-2,2s0.9,2,2,2s2-0.9,2-2S79.1,66,78,66z M79,33c-0.6,0-1,0.4-1,1s0.4,1,1,1s1-0.4,1-1
	S79.6,33,79,33z"/>
<path class="st1" d="M50,13.7c-20.1,0-36.3,16.3-36.3,36.3S29.9,86.3,50,86.3S86.3,70.1,86.3,50S70.1,13.7,50,13.7z"/>
<path class="st2" d="M50,15.7c18.9,0,34.3,15.4,34.3,34.3c0,18.9-15.4,34.3-34.3,34.3c-18.9,0-34.3-15.4-34.3-34.3
	S31.1,15.7,50,15.7 M50,13.7C30,13.7,13.7,30,13.7,50S30,86.3,50,86.3C70,86.3,86.3,70,86.3,50S70,13.7,50,13.7L50,13.7z"/>
<g>
	<path class="st3" d="M50,75.4C36,75.4,24.6,64,24.6,50c0-6.2,2.3-12.2,6.4-16.8c0.7-0.8,1.5-1.5,2.2-2.2c0.9-0.8,2.3-0.7,3.1,0.2
		c0.8,0.9,0.7,2.3-0.2,3.1c-0.7,0.6-1.3,1.2-1.9,1.9c-3.4,3.8-5.3,8.8-5.3,13.9c0,11.6,9.4,21.1,21.1,21.1S71.1,61.6,71.1,50
		c0-5.1-1.9-10.1-5.3-13.9c-0.6-0.7-1.2-1.3-1.9-1.9c-0.9-0.8-1-2.2-0.2-3.1c0.8-0.9,2.2-1,3.1-0.2c0.8,0.7,1.5,1.5,2.2,2.2
		c4.1,4.6,6.4,10.6,6.4,16.8C75.4,64,64,75.4,50,75.4z"/>
	<path class="st2" d="M50,76.1c-14.4,0-26.1-11.7-26.1-26.1c0-6.4,2.3-12.5,6.5-17.3c0.7-0.8,1.5-1.6,2.3-2.3
		c0.6-0.5,1.3-0.8,2.1-0.7c0.8,0,1.5,0.4,2,1c0.5,0.6,0.8,1.3,0.7,2.1c0,0.8-0.4,1.5-1,2c-0.6,0.6-1.2,1.2-1.8,1.8
		c-3.3,3.7-5.1,8.5-5.1,13.4c0,11.2,9.1,20.3,20.3,20.3S70.3,61.2,70.3,50c0-5-1.8-9.7-5.1-13.4c-0.6-0.6-1.2-1.2-1.8-1.8
		c-0.6-0.5-0.9-1.2-1-2c0-0.8,0.2-1.5,0.7-2.1c0.5-0.6,1.2-0.9,2-1c0.8-0.1,1.5,0.2,2.1,0.7c0.8,0.7,1.6,1.5,2.3,2.3
		c4.2,4.8,6.5,10.9,6.5,17.3C76.1,64.4,64.4,76.1,50,76.1z M34.6,31.1c-0.4,0-0.7,0.1-1,0.4c-0.8,0.7-1.5,1.4-2.2,2.2
		c-4,4.5-6.2,10.3-6.2,16.3c0,13.6,11.1,24.7,24.7,24.7S74.7,63.6,74.7,50c0-6-2.2-11.8-6.2-16.3c-0.7-0.8-1.4-1.5-2.2-2.2
		c-0.3-0.3-0.7-0.4-1.1-0.4c-0.4,0-0.7,0.2-1,0.5c-0.3,0.3-0.4,0.7-0.4,1.1c0,0.4,0.2,0.7,0.5,1c0.7,0.6,1.3,1.3,1.9,1.9
		c3.5,4,5.4,9.1,5.4,14.4c0,12-9.8,21.8-21.8,21.8S28.2,62,28.2,50c0-5.3,1.9-10.4,5.4-14.4c0.6-0.7,1.3-1.3,1.9-1.9
		c0.3-0.3,0.5-0.6,0.5-1c0-0.4-0.1-0.8-0.4-1.1C35.5,31.3,35.1,31.1,34.6,31.1C34.7,31.1,34.7,31.1,34.6,31.1z"/>
	<path class="st3" d="M52.2,26.8V50c0,1.2-1,2.2-2.2,2.2l0,0c-1.2,0-2.2-1-2.2-2.2V26.8c0-1.2,1-2.2,2.2-2.2l0,0
		C51.2,24.6,52.2,25.6,52.2,26.8z"/>
	<path class="st2" d="M50,25.3c0.8,0,1.5,0.7,1.5,1.5V50c0,0.8-0.7,1.5-1.5,1.5s-1.5-0.7-1.5-1.5V26.8C48.5,26,49.2,25.3,50,25.3
		 M50,23.9c-1.6,0-2.9,1.3-2.9,2.9V50c0,1.6,1.3,2.9,2.9,2.9s2.9-1.3,2.9-2.9V26.8C52.9,25.2,51.6,23.9,50,23.9L50,23.9z"/>
</g>
</svg>
