<svg xmlns="http://www.w3.org/2000/svg" viewBox="0 0 48 48"><path fill="#f58420" d="M33.742,29.414c4.608-1.279,8.573-4.296,10.087-8.919c1.514-4.623,0.619-9.992-2.309-13.843 c-0.555-0.73-1.188-1.417-1.967-1.887c-0.751-0.454-1.607-0.69-2.462-0.868c-5.102-1.063-11.04,0.127-14.163,4.38"/><path fill="#f3ad20" d="M20.107,14.643c0.336-4.618,3.93-8.789,8.374-9.718s9.355,1.463,11.443,5.575 c0.586,1.154,0.962,2.408,1.244,3.675c0.459,2.06,0.676,4.221,0.218,6.282c-0.307,1.381-0.908,2.677-1.584,3.914 c-0.585,1.069-1.24,2.117-2.115,2.956c-1.136,1.089-2.627,1.787-4.178,1.954"/><path fill="#d6e5e5" d="M33.017,25.295c0.462-1.473,0.4-3.053,0.333-4.595c-0.146-3.4-0.293-6.8-0.439-10.2 c-0.004-0.102-0.011-0.21-0.073-0.291c-0.059-0.077-0.157-0.112-0.251-0.136c-1.026-0.262-2.044,0.379-2.91,0.988 c-0.82,0.577-1.743,1.23-2.563,1.807c-0.34,0.187-0.819,0.498-0.887,0.88c-0.048,0.268,0.073,0.535,0.191,0.78 c0.089,0.186,0.207,0.395,0.41,0.432c0.112,0.02,0.226-0.018,0.333-0.056c0.688-0.243,1.375-0.485,2.063-0.728 c0.11-0.039,0.228-0.078,0.34-0.048c0.243,0.066,0.291,0.383,0.292,0.634c0.007,1.922,0.014,2.359,0.021,4.282 C29.875,19.043,32.711,22.754,33.017,25.295z"/><path fill="#f58420" d="M10.707,16.071c3.911-1.633,7.298-1.717,11.212-1.069c3.914,0.648,7.747,2.742,9.73,6.208 c0.671,1.172,1.115,2.467,1.396,3.791c1.376,6.494-1.455,13.786-6.951,17.443"/><path fill="#febf10" d="M30.053,24.896c-1.648-4.311-5.071-7.914-9.493-9.119c-1.427-0.389-2.914-0.491-4.392-0.526 c-1.737-0.041-3.522,0.017-5.13,0.681c-2.916,1.203-4.727,4.162-5.908,7.108c-0.732,1.825-1.304,3.733-1.463,5.694 c-0.382,4.706,1.784,9.511,5.46,12.432c3.677,2.921,8.737,3.926,13.276,2.774c1.753-0.445,3.452-1.206,4.82-2.399 c2.076-1.81,3.238-4.465,3.996-7.125c0.571-2.002,0.944-4.179,0.248-6.141C30.846,26.517,30.575,26.26,30.053,24.896z"/><path fill="#010101" d="M41.918,6.351c-0.709-0.933-1.378-1.572-2.106-2.013c-0.855-0.518-1.804-0.761-2.619-0.93 c-4.365-0.911-10.613-0.34-14.269,4.084c-1.779,1.804-2.989,4.191-3.271,6.728c-2.986-0.255-5.515,0.061-8.13,1.007 c-0.227,0.071-0.453,0.151-0.676,0.242c-0.043,0.018-0.083,0.043-0.125,0.062c-0.069,0.028-0.137,0.05-0.207,0.079 c-0.051,0.021-0.092,0.054-0.132,0.089c-2.346,1.157-4.271,3.55-5.716,7.154c-0.863,2.152-1.353,4.063-1.497,5.841 c-0.394,4.854,1.771,9.782,5.648,12.863c2.735,2.173,6.286,3.344,9.846,3.344c1.3,0,2.601-0.156,3.864-0.477 c1.357-0.344,2.554-0.853,3.604-1.492c0.083-0.006,0.166-0.024,0.24-0.073c4.206-2.798,6.951-7.791,7.433-12.954 c0.024-0.003,0.047-0.003,0.071-0.01c5.173-1.436,8.974-4.806,10.429-9.244C45.88,15.839,44.966,10.359,41.918,6.351z M23.131,8.727c0.076-0.034,0.148-0.081,0.201-0.153c0.123-0.167,0.257-0.318,0.387-0.474c1.345-1.332,3.029-2.301,4.864-2.685 c4.227-0.887,8.909,1.4,10.895,5.313c0.498,0.979,0.879,2.109,1.202,3.557c0.528,2.368,0.599,4.352,0.218,6.065 c-0.253,1.139-0.727,2.305-1.535,3.781c-0.51,0.933-1.15,1.998-2.023,2.835c-0.955,0.916-2.174,1.509-3.462,1.736 c0.027-1.098-0.063-2.194-0.254-3.274c0.017-0.031,0.049-0.049,0.06-0.084c0.393-1.253,0.306-2.503,0.223-3.712 c-0.022-0.315-0.044-0.633-0.058-0.953l-0.439-10.2c-0.005-0.127-0.016-0.364-0.177-0.575c-0.158-0.204-0.376-0.278-0.523-0.314 c-1.222-0.314-2.357,0.384-3.322,1.063l-2.516,1.778c-0.685,0.375-1.058,0.777-1.14,1.23c-0.078,0.439,0.109,0.828,0.233,1.084 c0.089,0.187,0.297,0.621,0.771,0.708c0.243,0.045,0.448-0.027,0.589-0.076l2.024-0.715c0.002,0.028,0.004,0.063,0.004,0.104 l0.015,3.025c-1.976-1.644-4.534-2.809-7.368-3.279c-0.465-0.077-0.911-0.136-1.353-0.19C20.879,12.252,21.782,10.292,23.131,8.727 z M30.374,18.71l-0.019-3.949c-0.001-0.815-0.416-1.049-0.658-1.114c-0.266-0.074-0.499,0.008-0.641,0.057l-2.06,0.728 c-0.019,0.007-0.042,0.015-0.051,0.024c-0.018-0.027-0.043-0.071-0.078-0.145c-0.068-0.142-0.171-0.355-0.149-0.475 c0.001-0.009,0.043-0.206,0.683-0.56l2.563-1.808c0.754-0.53,1.622-1.081,2.449-0.92l0.438,10.172 c0.014,0.329,0.037,0.655,0.059,0.979c0.028,0.41,0.049,0.81,0.058,1.205c-0.25-0.695-0.544-1.346-0.885-1.942 C31.621,20.153,31.043,19.4,30.374,18.71z M22.281,43.456c-4.426,1.123-9.346,0.095-12.841-2.682 c-3.565-2.832-5.635-7.542-5.273-12c0.136-1.676,0.603-3.491,1.428-5.548c1.412-3.522,3.269-5.795,5.517-6.775 c0.129-0.052,0.256-0.097,0.384-0.146c1.228-0.448,2.573-0.565,3.895-0.565c0.256,0,0.512,0.004,0.766,0.01 c1.304,0.031,2.832,0.115,4.272,0.508c4.046,1.104,7.47,4.399,9.157,8.815c0,0,0,0,0,0c0.231,0.605,0.414,0.998,0.599,1.395 c0.229,0.491,0.467,0.999,0.812,1.974c0.691,1.949,0.225,4.143-0.258,5.837c-0.902,3.164-2.16,5.416-3.844,6.885 C25.693,42.213,24.141,42.983,22.281,43.456z M31.763,34.327c0.499-1.805,0.932-4.091,0.177-6.219 c-0.361-1.02-0.608-1.55-0.848-2.063c-0.176-0.378-0.351-0.752-0.572-1.329h0c-1.774-4.64-5.366-8.114-9.63-9.354 c0.314,0.042,0.622,0.079,0.948,0.133c2.997,0.496,5.656,1.815,7.561,3.664c0.044,0.178,0.177,0.313,0.354,0.358 c0.566,0.601,1.065,1.246,1.463,1.94c0.598,1.046,1.049,2.273,1.34,3.646C33.204,28.16,32.868,31.399,31.763,34.327z M43.354,20.341c-0.719,2.194-2.081,4.096-3.916,5.61c0.299-0.455,0.567-0.911,0.802-1.34c0.855-1.563,1.359-2.811,1.634-4.045 c0.413-1.859,0.342-3.985-0.218-6.499c-0.341-1.532-0.75-2.737-1.287-3.793c-1.788-3.522-5.569-5.841-9.436-6.031 c2.118-0.339,4.257-0.231,6.056,0.144c0.732,0.152,1.579,0.367,2.305,0.807c0.617,0.373,1.198,0.933,1.828,1.763 C43.931,10.65,44.807,15.904,43.354,20.341z"/><path fill="#d6e5e5" d="M12.563,21.531c-0.042,2.213,0.104,6.756,0.063,8.969c1.585,0.114,2.454-0.619,4.003-0.265 s3.074,1.702,2.831,3.272c-0.189,1.225-1.387,2.072-2.596,2.349s-2.469,0.132-3.708,0.183c-0.307,0.013-0.64,0.049-0.862,0.262 c-0.519,0.501,0.014,1.359-0.032,2.079c1.87,0.224,3.832,0.263,5.624,0.058c1.872-0.214,3.64-1.506,4.341-3.254 c0.58-1.446,0.336-3.102-0.201-4.565c-0.266-0.726-0.61-1.438-1.14-2c-1.345-1.424-3.539-1.571-5.496-1.463 c-0.234,0.013-0.518,0.004-0.637-0.199c-0.06-0.103-0.059-0.229-0.055-0.348c0.011-0.39,0.022-2.798,0.033-3.188 c1.372,0.014,4.762,0.016,6.134,0.042c1.513,0.029,2.08-0.115,2.124-0.952c0.048-0.912-0.06-1.416-0.803-1.428 c-0.593-0.01-1.155-0.244-1.749-0.229c-1.194,0.029-4.406,0.059-5.6,0.088C13.943,20.963,13.129,20.839,12.563,21.531z"/><path fill="#010101" d="M15.419,39.071c-1.045,0-2.128-0.064-3.217-0.195c-0.264-0.031-0.457-0.264-0.439-0.528 c0.012-0.19-0.037-0.426-0.089-0.674c-0.115-0.544-0.258-1.222,0.273-1.734c0.382-0.367,0.926-0.39,1.188-0.401 c0.401-0.016,0.805-0.014,1.208-0.009c0.842,0.01,1.641,0.016,2.409-0.161c0.988-0.227,2.056-0.914,2.214-1.938 c0.191-1.242-1.111-2.402-2.449-2.708c-0.747-0.171-1.312-0.052-1.964,0.085c-0.554,0.117-1.18,0.247-1.963,0.192 c-0.265-0.02-0.469-0.242-0.464-0.509c0.021-1.098-0.006-2.811-0.031-4.467c-0.025-1.665-0.052-3.387-0.031-4.502 c0.002-0.111,0.042-0.22,0.113-0.307c0.63-0.771,1.496-0.771,2.26-0.771l0.389-0.004c0.599-0.015,1.702-0.029,2.806-0.044 c1.099-0.015,2.199-0.029,2.794-0.044c0.377-0.004,0.703,0.059,1.026,0.124c0.26,0.052,0.505,0.101,0.742,0.104 c0.406,0.007,0.724,0.131,0.946,0.369c0.34,0.365,0.386,0.897,0.35,1.586c-0.077,1.474-1.494,1.452-2.633,1.426 c-0.847-0.017-2.465-0.023-3.9-0.029c-0.642-0.003-1.247-0.006-1.731-0.009c-0.003,0.312-0.006,0.72-0.01,1.126 c-0.005,0.693-0.011,1.378-0.016,1.571c0,0.01-0.001,0.021-0.001,0.035c0.037,0.003,0.09,0.004,0.167-0.001 c1.776-0.103,4.32-0.038,5.886,1.618c0.501,0.531,0.897,1.221,1.246,2.172c0.678,1.85,0.746,3.552,0.195,4.924 c-0.759,1.894-2.667,3.326-4.748,3.565C17.143,39.025,16.294,39.071,15.419,39.071z M12.738,37.93 c1.78,0.186,3.533,0.189,5.092,0.011c1.726-0.198,3.307-1.381,3.934-2.943c0.577-1.439,0.206-3.083-0.206-4.208 c-0.301-0.818-0.629-1.399-1.034-1.828c-1.28-1.354-3.523-1.391-5.104-1.308c-0.201,0.011-0.811,0.044-1.097-0.446 c-0.134-0.228-0.127-0.47-0.124-0.614c0.005-0.189,0.011-0.866,0.016-1.551c0.006-0.715,0.012-1.438,0.017-1.637 c0.008-0.271,0.23-0.485,0.5-0.485c0.001,0,0.003,0,0.005,0c0.522,0.005,1.338,0.009,2.223,0.013 c1.44,0.006,3.065,0.013,3.915,0.029c1.593,0.029,1.599-0.16,1.615-0.479c0.033-0.628-0.037-0.803-0.082-0.851 c-0.028-0.03-0.114-0.05-0.23-0.052c-0.328-0.005-0.63-0.065-0.923-0.124c-0.282-0.058-0.543-0.114-0.805-0.104 c-0.598,0.015-1.702,0.029-2.806,0.044c-1.099,0.015-2.199,0.029-2.794,0.044c-0.14,0.003-0.278,0.004-0.414,0.004 c-0.656,0-1.07,0.015-1.375,0.288c-0.015,1.1,0.01,2.713,0.034,4.275c0.022,1.433,0.045,2.907,0.037,4.001 c0.433-0.017,0.816-0.097,1.216-0.181c0.704-0.148,1.43-0.301,2.393-0.081c1.768,0.403,3.5,1.984,3.214,3.835 c-0.229,1.487-1.661,2.459-2.979,2.761c-0.883,0.202-1.778,0.195-2.642,0.187c-0.387-0.005-0.773-0.009-1.158,0.009 c-0.127,0.005-0.426,0.018-0.535,0.122c-0.124,0.119-0.079,0.385,0.011,0.808C12.683,37.613,12.715,37.77,12.738,37.93z"/></svg>